# xmcd
#
# Track frame offsets: 
#        187
#        16342
#        32750
#        50047
#        72355
#        96362
#        120650
#        139492
#        169037
#        189497
#        213835
#        227500
#        240137
#        262437
#
# Disc length: 3572 seconds
#
# Revision: 7
# Processed by: cddbd v1.5.2PL0 Copyright (c) Steve Scherf et al.
# Submitted via: ExactAudioCopy v1.0b3
#
DISCID=c70df20e
DTITLE=COUNTING CROWS - RECOVERING THE SATELLITES (JAPANESE EDITION)
DYEAR=1996
DGENRE=Alternative Rock
TTITLE0=Catapult 
TTITLE1=Angels Of The Silences
TTITLE2=Daylight Fading
TTITLE3=I'm Not Sleeping
TTITLE4=Goodnight Elisabeth
TTITLE5=Children In Bloom
TTITLE6=Have You Seen Me Lately
TTITLE7=Miller's Angels 
TTITLE8=Another Horsedreamer's Blues
TTITLE9=Recovering The Satellites 
TTITLE10=Monkey
TTITLE11=Mercury
TTITLE12=A Long December 
TTITLE13=Walkaways
EXTD=YEAR: 1996
EXTT0=
EXTT1=
EXTT2=
EXTT3=
EXTT4=
EXTT5=
EXTT6=
EXTT7=
EXTT8=
EXTT9=
EXTT10=
EXTT11=
EXTT12=
EXTT13=
PLAYORDER=
